# Blender v3.6.4 OBJ File: ''
# www.blender.org
mtllib untitled.mtl
o cube.000
v -5.625000 3.875000 0.525001
v 0.812500 3.875000 0.525000
v 0.812500 7.187500 0.525000
v -5.625000 7.187500 0.525001
v -5.625000 3.875000 0.400001
v -5.625000 7.187500 0.400001
v 0.812500 3.875000 0.400000
v 0.812500 7.187500 0.400000
v 0.750000 -0.000000 0.625000
v 1.062500 -0.000000 0.625000
v 1.062500 7.187500 0.625000
v 0.750000 7.187500 0.625000
v 0.750000 0.000000 0.312500
v 0.750000 7.187500 0.312500
v 1.062500 0.000000 0.312500
v 1.062500 7.187500 0.312500
v -5.750000 3.750000 0.625001
v 0.750000 3.750000 0.625000
v 0.750000 3.875000 0.625000
v -5.750000 3.875000 0.625001
v -5.750000 3.750000 0.312501
v -5.750000 3.875000 0.312501
v 0.750000 3.750000 0.312500
v 0.750000 3.875000 0.312500
v -5.750000 7.187500 0.625001
v 1.062500 7.187500 0.625000
v 1.062500 7.312500 0.625000
v -5.750000 7.312500 0.625001
v -5.750000 7.187500 0.312501
v -5.750000 7.312500 0.312501
v 1.062500 7.187500 0.312500
v 1.062500 7.312500 0.312500
v -5.750000 7.187500 0.625001
v -5.750000 3.875000 0.625001
v -5.625000 3.875000 0.625001
v -5.625000 7.187500 0.625001
v -5.750000 7.187500 0.312501
v -5.625000 7.187500 0.312501
v -5.750000 3.875000 0.312501
v -5.625000 3.875000 0.312501
vt 0.000000 0.792969
vt 0.402344 0.792969
vt 0.402344 1.000000
vt 0.000000 1.000000
vt 0.265625 0.378906
vt 0.273438 0.378906
vt 0.273438 0.585938
vt 0.265625 0.585938
vt 0.000000 0.585938
vt 0.402344 0.585938
vt 0.402344 0.792969
vt 0.000000 0.792969
vt 0.273438 0.378906
vt 0.281250 0.378906
vt 0.281250 0.585938
vt 0.273438 0.585938
vt 0.824219 0.871094
vt 0.421875 0.871094
vt 0.421875 0.863281
vt 0.824219 0.863281
vt 0.824219 0.855469
vt 0.421875 0.855469
vt 0.421875 0.863281
vt 0.824219 0.863281
vt 0.402344 0.550781
vt 0.421875 0.550781
vt 0.421875 1.000000
vt 0.402344 1.000000
vt 0.000000 0.136719
vt 0.019531 0.136719
vt 0.019531 0.585938
vt 0.000000 0.585938
vt 0.019531 0.136719
vt 0.039062 0.136719
vt 0.039062 0.585938
vt 0.019531 0.585938
vt 0.039062 0.136719
vt 0.058594 0.136719
vt 0.058594 0.585938
vt 0.039062 0.585938
vt 0.300781 0.585938
vt 0.281250 0.585938
vt 0.281250 0.566406
vt 0.300781 0.566406
vt 0.320312 0.566406
vt 0.300781 0.566406
vt 0.300781 0.585938
vt 0.320312 0.585938
vt 0.421875 0.878906
vt 0.828125 0.878906
vt 0.828125 0.886719
vt 0.421875 0.886719
vt 0.320312 0.578125
vt 0.339844 0.578125
vt 0.339844 0.585938
vt 0.320312 0.585938
vt 0.421875 0.871094
vt 0.828125 0.871094
vt 0.828125 0.878906
vt 0.421875 0.878906
vt 0.339844 0.578125
vt 0.359375 0.578125
vt 0.359375 0.585938
vt 0.339844 0.585938
vt 0.828125 0.960938
vt 0.421875 0.960938
vt 0.421875 0.941406
vt 0.828125 0.941406
vt 0.828125 0.921875
vt 0.421875 0.921875
vt 0.421875 0.941406
vt 0.828125 0.941406
vt 0.421875 0.894531
vt 0.847656 0.894531
vt 0.847656 0.902344
vt 0.421875 0.902344
vt 0.359375 0.578125
vt 0.378906 0.578125
vt 0.378906 0.585938
vt 0.359375 0.585938
vt 0.421875 0.886719
vt 0.847656 0.886719
vt 0.847656 0.894531
vt 0.421875 0.894531
vt 0.378906 0.578125
vt 0.398438 0.578125
vt 0.398438 0.585938
vt 0.378906 0.585938
vt 0.847656 1.000000
vt 0.421875 1.000000
vt 0.421875 0.980469
vt 0.847656 0.980469
vt 0.847656 0.960938
vt 0.421875 0.960938
vt 0.421875 0.980469
vt 0.847656 0.980469
vt 0.421875 0.847656
vt 0.628906 0.847656
vt 0.628906 0.855469
vt 0.421875 0.855469
vt 0.421875 0.832031
vt 0.441406 0.832031
vt 0.441406 0.839844
vt 0.421875 0.839844
vt 0.421875 0.839844
vt 0.628906 0.839844
vt 0.628906 0.847656
vt 0.421875 0.847656
vt 0.421875 0.824219
vt 0.441406 0.824219
vt 0.441406 0.832031
vt 0.421875 0.832031
vt 0.265625 0.585938
vt 0.058594 0.585938
vt 0.058594 0.566406
vt 0.265625 0.566406
vt 0.628906 0.902344
vt 0.421875 0.902344
vt 0.421875 0.921875
vt 0.628906 0.921875
vn 0.0000 -0.0000 1.0000
vn -1.0000 0.0000 0.0000
vn -0.0000 0.0000 -1.0000
vn 1.0000 0.0000 0.0000
vn 0.0000 1.0000 0.0000
vn 0.0000 -1.0000 0.0000
usemtl m_25aa8ea2-f67d-96df-0aee-fc12ed9a7bf9
s 1
f 1/1/1 2/2/1 3/3/1 4/4/1
f 5/5/2 1/6/2 4/7/2 6/8/2
f 7/9/3 5/10/3 6/11/3 8/12/3
f 2/13/4 7/14/4 8/15/4 3/16/4
f 8/17/5 6/18/5 4/19/5 3/20/5
f 2/21/6 1/22/6 5/23/6 7/24/6
f 9/25/1 10/26/1 11/27/1 12/28/1
f 13/29/2 9/30/2 12/31/2 14/32/2
f 15/33/3 13/34/3 14/35/3 16/36/3
f 10/37/4 15/38/4 16/39/4 11/40/4
f 16/41/5 14/42/5 12/43/5 11/44/5
f 10/45/6 9/46/6 13/47/6 15/48/6
f 17/49/1 18/50/1 19/51/1 20/52/1
f 21/53/2 17/54/2 20/55/2 22/56/2
f 23/57/3 21/58/3 22/59/3 24/60/3
f 18/61/4 23/62/4 24/63/4 19/64/4
f 24/65/5 22/66/5 20/67/5 19/68/5
f 18/69/6 17/70/6 21/71/6 23/72/6
f 25/73/1 26/74/1 27/75/1 28/76/1
f 29/77/2 25/78/2 28/79/2 30/80/2
f 31/81/3 29/82/3 30/83/3 32/84/3
f 26/85/4 31/86/4 32/87/4 27/88/4
f 32/89/5 30/90/5 28/91/5 27/92/5
f 26/93/6 25/94/6 29/95/6 31/96/6
f 33/97/1 34/98/1 35/99/1 36/100/1
f 37/101/5 33/102/5 36/103/5 38/104/5
f 39/105/3 37/106/3 38/107/3 40/108/3
f 34/109/6 39/110/6 40/111/6 35/112/6
f 40/113/4 38/114/4 36/115/4 35/116/4
f 34/117/2 33/118/2 37/119/2 39/120/2
